<?xml version="1.0" standalone="no"?><!DOCTYPE svg PUBLIC "-//W3C//DTD SVG 1.1//EN" "http://www.w3.org/Graphics/SVG/1.1/DTD/svg11.dtd"><svg t="1630665363782" class="icon" viewBox="0 0 1024 1024" version="1.1" xmlns="http://www.w3.org/2000/svg" p-id="1655" xmlns:xlink="http://www.w3.org/1999/xlink" width="200" height="200"><defs><style type="text/css"></style></defs><path d="M513.4 512m-276.6 0a276.6 276.6 0 1 0 553.2 0 276.6 276.6 0 1 0-553.2 0Z" fill="#593810" p-id="1656"></path><path d="M800.6 623.6L988 512l-187.4-111.6c-9.4-24-21.2-45.2-35.8-66.4l42.6-118.4-117.2 42.4c-20-14.6-42.6-26.6-66.4-35.8L512 36l-111.6 187.4c-24 9.4-45.2 21.2-66.4 35.8l-117-42.6 42.6 117c-14.6 20-26.6 42.6-35.8 66.4L36 512l187.4 111.6c9.4 24 21.2 45.2 35.8 66.4l-42.6 118.4 117-42.6c20 14.6 42.6 26.6 66.4 35.8l112 186.4 111.6-187.4c24-9.4 45.2-21.2 66.4-35.8l118.4 42.6-42.4-117.2c14.6-20 26.6-42.6 34.6-66.6zM512 768.6c-141 0-256.6-114.4-256.6-256.6S371 255.4 512 255.4 768.6 371 768.6 512c0 141-115.6 256.6-256.6 256.6z" fill="#FF9C00" p-id="1657"></path><path d="M683.6 505.4c1.4-12-9.4-24-10.6-37.2 0-6.6-2.6-13.2-5.4-20-2.6-6.6-2.6-13.2-4-18.6h-1.4c8-16-14.6-34.6-25.2-46.6-13.2-13.2-20-30.6-39.8-37.2-9.4-4-18.6-9.4-29.2-13.2-9.4-4-20-6.6-28-9.4-9.4-4-16-12-26.6-10.6-10.6 1.4-16 8-28 5.4-24-8-41.2 5.4-59.8 18.6-9.4 6.6-18.6 12-26.6 18.6-2.6 2.6-5.4 6.6-8 10.6-2.6 4-8 6.6-10.6 12-5.4 8-13.2 13.2-21.2 18.6-4 2.6-6.6 8-12 10.6-6.6 4-8 2.6-8 10.6 0 10.6 5.4 18.6 5.4 28v16c1.4 5.4 2.6 9.4 4 14.6 2.6 9.4 0 20 4 28 5.4 8 10.6 17.2 17.2 24 6.6 8 13.2 17.2 20 26.6 4 5.4 18.6 13.2 18.6 21.2 10.6 2.6 13.2 14.6 22.6 14.6 5.4-1.4 10.6-1.4 14.6 0 5.4 1.4 9.4 2.6 14.6 4 9.4 0 16-8 25.2-10.6 9.4-2.6 20 0 29.2-4 17.2-10.6 28-29.2 29.2-49.2 0-10.6-2.6-21.2-9.4-29.2-5.4-9.4-1.4-20-10.6-25.2-9.4-4-20-8-32-8-10.6-4-21.2-2.6-32 1.4-17.2 12 21.2 39.8 1.4 49.2-22.6 9.4-34.6-16-39.8-33.2-2.6-10.6-2.6-22.6 0-33.2 0-5.4 1.4-9.4 2.6-14.6 2.6-4 8-6.6 12-8 8-5.4 14.6-13.2 22.6-18.6s18.6-9.4 28-12c12-2.6 24-2.6 35.8-2.6 5.4 0 10.6 1.4 16 1.4s9.4-2.6 14.6-2.6c8 0 5.4 2.6 5.4 9.4 0 4 2.6 8 5.4 12 6.6 8 12 16 18.6 24 13.2 16 10.6 41.2 9.4 61.2-1.4 10.6 0 21.2 2.6 32 4 12-5.4 12-13.2 18.6-5.4 8-10.6 16-14.6 24-6.6 8-13.2 14.6-21.2 20-6.6 6.6-14.6 12-21.2 17.2-9.4 5.4-18.6 10.6-28 14.6-10.6 4-22.6 6.6-33.2 9.4-5.4 1.4-10.6 2.6-16 5.4-4 2.6-6.6 8-12 10.6-13.2 8-28 6.6-42.6 13.2-8 4-34.6 5.4-35.8 14.6h-1.4c4 8 12 14.6 21.2 16 9.4 1.4 18.6 4 26.6 6.6 9.4 4 17.2 5.4 26.6 6.6 9.4 0 17.2 5.4 26.6 6.6 10.6 1.4 18.6-6.6 28-8 10.6-1.4 21.2-1.4 32-2.6 10.6-1.4 20-4 30.6-6.6 9.4-4 18.6-4 28-8 9.4-4 17.2-8 25.2-13.2 8-5.4 9.4-14.6 17.2-20 8-5.4 14.6-10.6 21.2-17.2 5.4-8 9.4-17.2 10.6-26.6 4-8 9.4-16 14.6-22.6 4-9.4 8-18.6 9.4-28 4-9.4 4-18.6 4-29.2-1.4-5.4-6.6-8-4-14.6 7.8-7.6 9.2-11.6 10.6-15.6z" fill="#39CCFF" p-id="1658"></path></svg>